<?xml version="1.0" encoding="iso-8859-1"?>
<!-- Uploaded to: SVG Repo, www.svgrepo.com, Generator: SVG Repo Mixer Tools -->
<!DOCTYPE svg PUBLIC "-//W3C//DTD SVG 1.1//EN" "http://www.w3.org/Graphics/SVG/1.1/DTD/svg11.dtd">
<svg fill="#000000" version="1.1" id="Capa_1" xmlns="http://www.w3.org/2000/svg" xmlns:xlink="http://www.w3.org/1999/xlink" 
	 width="800px" height="800px" viewBox="0 0 430.637 430.637"
	 xml:space="preserve">
<g>
	<g>
		<path d="M248.061,166.98c5.604-4.169,8.826-10.251,8.836-16.696c0-6.426-3.203-12.517-8.779-16.696l-83.48-62.683
			c-3.882-2.917-7.927-4.408-11.972-4.408c-7.87,0-15.845,6.292-15.845,18.322v12.718c0,1.922-1.559,3.471-3.471,3.471H26.717
			c-13.426,0-24.355,10.93-24.355,24.355v48.559c0,13.426,10.93,24.355,24.355,24.355H133.33c0.928,0,1.75,0.335,2.391,0.985
			c0.622,0.631,0.966,1.454,0.957,2.391l-0.115,13.971c-0.086,7.287,2.677,11.619,5.011,13.99c2.85,2.878,6.655,4.446,10.729,4.446
			c4.045,0,8.061-1.473,11.943-4.389L248.061,166.98z M133.339,177.403H26.717c-1.922,0-3.48-1.568-3.48-3.472v-48.558
			c0-1.903,1.559-3.471,3.48-3.471H133.33c13.417,0,24.346-10.93,24.346-24.355c0,0,0-1.291,0-2.878s3.423-0.306,7.65,2.869
			l62.596,47c4.227,3.175,4.217,8.31-0.01,11.465l-62.758,46.942c-4.227,3.166-7.641,4.208-7.631,2.333l0.028-3.395
			c0.067-6.541-2.419-12.661-6.99-17.279C145.981,179.937,139.852,177.403,133.339,177.403z"/>
		<path d="M291.426,201.013c-2.85-2.859-6.654-4.427-10.729-4.427c-4.045,0-8.061,1.473-11.953,4.389l-83.796,62.701
			c-5.604,4.15-8.826,10.232-8.836,16.677c0,6.445,3.204,12.537,8.778,16.716l83.48,62.663c3.883,2.936,7.928,4.408,11.973,4.408
			c7.869,0,15.846-6.292,15.846-18.322V333.1c0-1.903,1.559-3.471,3.471-3.471h106.621c13.416,0,24.346-10.931,24.346-24.356
			v-48.539c0-13.426-10.93-24.355-24.346-24.355H299.66c-0.918,0-1.75-0.335-2.391-0.994c-0.621-0.632-0.967-1.473-0.957-2.41
			l0.115-13.952C296.523,207.735,293.76,203.384,291.426,201.013z M406.301,253.253c1.912,0,3.471,1.549,3.471,3.471v48.54
			c0,1.922-1.559,3.49-3.471,3.49H299.68c-13.416,0-24.348,10.93-24.348,24.336c0,0,0,1.291,0,2.879
			c0,1.587-3.422,0.306-7.648-2.869l-62.597-47c-4.227-3.175-4.217-8.31,0.01-11.465l62.759-46.942
			c4.227-3.165,7.641-4.198,7.631-2.324l-0.029,3.404c-0.066,6.522,2.42,12.642,6.98,17.28c4.59,4.628,10.711,7.19,17.232,7.19
			h106.631V253.253z"/>
		<path d="M147.769,302.241H9.562c-5.279,0-9.562,3.213-9.562,7.172s4.284,7.172,9.562,7.172h138.197
			c5.279,0,9.562-3.213,9.562-7.172S153.047,302.241,147.769,302.241z"/>
		<path d="M147.769,256.829H9.562c-5.279,0-9.562,3.213-9.562,7.172s4.284,7.172,9.562,7.172h138.197
			c5.279,0,9.562-3.213,9.562-7.172S153.047,256.829,147.769,256.829z"/>
		<path d="M421.084,155.027H282.877c-5.277,0-9.562,3.213-9.562,7.172s4.285,7.172,9.562,7.172h138.197
			c5.279,0,9.562-3.213,9.562-7.172S426.363,155.027,421.084,155.027z"/>
		<path d="M421.084,109.605H282.877c-5.277,0-9.562,3.213-9.562,7.172s4.285,7.172,9.562,7.172h138.197
			c5.279,0,9.562-3.213,9.562-7.172S426.363,109.605,421.084,109.605z"/>
	</g>
</g>
</svg>