<?xml version="1.0" encoding="UTF-8"?>
<svg id="katman_1" xmlns="http://www.w3.org/2000/svg" version="1.1" viewBox="0 0 1858 1063">
  <!-- Generator: Adobe Illustrator 29.6.1, SVG Export Plug-In . SVG Version: 2.1.1 Build 9)  -->
  <defs>
    <style>
      .st0 {
        fill-rule: evenodd;
      }

      .st0, .st1 {
        fill: #fff;
      }

      .st2 {
        fill: #e84142;
      }
    </style>
  </defs>
  <path class="st1" d="M526.8,462.73L317.37.8h-108.9L1.51,458.84l-1.48,3.89h115.8l40.9-97.84h210.9l40.9,97.84h118.26ZM331.66,279.23h-138.47l69.48-165.01,68.99,165.01Z"/>
  <path class="st1" d="M748.58,462.99l149.54-356.64h-103.75l-98.88,234.83-95.47-234.83h-111.05l149.11,356.64h110.49Z"/>
  <path class="st1" d="M1219.72,140.47c-29.72-26.31-72.09-39.46-127.13-39.46-28.25,0-56.5,3.9-83.29,11.21-26.79,7.31-50.17,18.03-69.65,31.67l-1.95,1.46,38.97,76,2.43-1.95c12.18-9.74,27.27-17.54,45.3-23.39,17.53-5.85,36.04-8.77,54.55-8.77,26.3,0,45.78,5.85,58.94,17.05,12.17,10.72,18.99,26.8,19.48,46.77h-78.42c-51.63,0-90.6,9.74-115.44,28.74-25.33,19-37.99,45.8-37.99,78.93,0,20.95,5.36,39.95,16.07,56.52,10.72,16.56,26.3,29.72,46.27,38.98,19.97,9.26,43.83,14.13,71.11,14.13,48.71,0,83.78-14.13,104.23-42.88v37.51h100.83v-203.16c0-52.62-15.1-93.06-44.32-119.37ZM1129.61,382.61c-13.16,7.8-28.25,11.69-44.82,11.69s-30.68-3.9-40.42-10.72c-9.74-7.31-14.13-16.57-14.13-28.75,0-25.82,19.48-38.49,59.91-38.49h66.73v32.64c-5.36,14.62-14.61,25.82-27.27,33.62Z"/>
  <path class="st0" d="M.03,567.03h111.05v379.27h351.31v111.05H111.08v.13H.03v-111.18S.03,567.03.03,567.03Z"/>
  <path class="st1" d="M818.86,734.86c-29.71-26.31-72.09-39.46-127.13-39.46-28.25,0-56.5,3.9-83.29,11.2-26.79,7.31-50.17,18.03-69.65,31.67l-1.95,1.46,38.97,76,2.44-1.95c12.18-9.74,27.28-17.54,45.3-23.38,17.54-5.85,36.04-8.77,54.55-8.77,26.3,0,45.78,5.85,58.94,17.05,12.18,10.72,19,26.8,19.48,46.77h-78.42c-51.63,0-90.6,9.74-115.44,28.74-25.33,19-37.99,45.8-37.99,78.93,0,20.95,5.36,39.95,16.07,56.51,10.72,16.57,26.3,29.72,46.27,38.98,19.97,9.26,43.84,14.13,71.11,14.13,48.71,0,83.78-14.13,104.23-42.88v37.52h100.83v-203.17c0-52.62-14.61-93.06-44.32-119.37ZM728.75,977c-13.15,7.8-28.25,11.69-44.81,11.69s-30.69-3.9-40.43-10.72c-9.74-7.31-14.12-16.57-14.12-28.74,0-25.82,19.48-38.49,59.91-38.49h67.22v32.64c-5.85,14.62-15.1,25.82-27.76,33.62Z"/>
  <path class="st1" d="M1238.96,718.29c-27.28-15.1-57.47-22.9-90.6-22.9-42.86,0-77.44,13.16-103.26,38.49v-166.62h-107.15v489.65h102.77v-36.06c25.33,27.29,61.86,41.42,107.64,41.42,33.13,0,63.32-7.8,90.6-22.9,27.28-15.11,48.71-37.03,63.81-64.31,15.58-27.28,23.38-59.93,23.38-96.47s-7.8-68.7-23.38-96.47c-15.59-26.8-37.02-48.72-63.81-63.82ZM1130.83,784.55c25.33,0,46.27,8.77,62.34,25.82,16.08,17.05,24.36,40.44,24.36,69.18s-8.28,52.13-24.36,69.18c-16.07,17.05-37.01,25.82-62.34,25.82s-46.27-8.77-62.35-25.82c-16.07-17.05-24.35-40.44-24.35-69.18s8.28-52.13,24.35-69.18c16.08-17.05,37.02-25.82,62.35-25.82Z"/>
  <path class="st1" d="M1665.68,886.38c-13.64-14.62-30.2-24.85-48.71-30.21-18.5-5.36-41.88-10.72-70.62-15.59-25.33-3.9-44.33-7.79-55.53-12.18-10.71-3.9-16.07-10.72-16.07-20.46,0-8.77,4.87-15.59,15.1-20.95,10.23-5.85,26.3-8.77,47.73-8.77,36.04,0,69.65,8.77,99.85,25.82l2.44,1.46,36.04-77.47-1.95-1.46c-16.07-9.74-37.01-17.54-61.86-22.9-24.84-5.36-49.68-8.28-74.52-8.28-33.61,0-63.32,4.87-88.16,14.62-24.84,9.74-44.32,23.39-57.48,40.92-13.15,17.54-19.97,38-19.97,60.9,0,27.28,7.31,48.23,21.44,63.34,14.12,14.62,30.68,24.85,49.68,30.69,18.51,5.85,42.86,10.72,71.6,15.1,23.86,2.92,41.89,6.82,53.58,10.72,10.71,3.9,16.07,10.23,16.07,19,0,19.49-20.94,29.23-61.86,29.23-20.94,0-42.86-2.92-64.29-9.26-21.92-6.33-40.92-14.13-56.02-24.36l-2.43-1.46-36.05,77.96,1.95,1.46c16.56,11.2,39.46,20.46,67.22,27.28,27.76,7.31,56.99,10.72,86.21,10.72,34.58,0,64.78-4.87,90.11-14.13,25.33-9.25,44.81-22.9,58.45-40.44,13.15-17.54,19.97-37.51,19.97-59.92-.97-25.82-8.28-46.77-21.92-61.39Z"/>
  <path class="st2" d="M1857.15,950.63h-107.16v107.19h107.16v-107.19Z"/>
</svg>