<?xml version="1.0" encoding="UTF-8"?>
<svg id="katman_1" xmlns="http://www.w3.org/2000/svg" xmlns:xlink="http://www.w3.org/1999/xlink" version="1.1" viewBox="0 0 233 24">
  <!-- Generator: Adobe Illustrator 29.6.1, SVG Export Plug-In . SVG Version: 2.1.1 Build 9)  -->
  <defs>
    <style>
      .st0 {
        fill: none;
      }

      .st1 {
        fill: #fff;
      }

      .st2 {
        clip-path: url(#clippath);
      }
    </style>
    <clipPath id="clippath">
      <rect class="st0" width="233" height="24"/>
    </clipPath>
  </defs>
  <g class="st2">
    <g>
      <path class="st1" d="M208.38,0h-5.68l-5.31,24h5.68l5.31-24Z"/>
      <path class="st1" d="M233,0h-5.68l-5.31,24h5.68l5.31-24Z"/>
      <path class="st1" d="M214.06,0l7.95,24h-5.68l-7.95-24h5.68Z"/>
      <path class="st1" d="M73.54,18.32L77.59,0h-5.68l-5.31,24h30.3l1.26-5.68h-24.62Z"/>
      <path class="st1" d="M104.61,0l-5.31,24h21.13c5.06,0,10.07-4.11,11.19-9.17l-4.42-5.68h5.68C134,4.09,130.82,0,125.77,0h-21.16ZM121.72,18.31h-15.48l.77-3.49h18.94v.03c-.43,1.91-2.32,3.46-4.23,3.46ZM127.21,9.14h-18.94l.76-3.46h15.48c1.91,0,3.11,1.55,2.69,3.46Z"/>
      <path class="st1" d="M194.99,24l2.03-9.17-4.42-5.68h5.68c1.12-5.05-2.07-9.14-7.11-9.14h-21.16l-5.31,24h5.68l2.03-9.17h18.94l-2.03,9.17h5.68ZM192.6,9.14h-18.94l.77-3.46h15.48c1.91,0,3.11,1.55,2.69,3.46Z"/>
      <path class="st1" d="M137.3,0l-5.31,24h30.3l5.31-24h-30.3ZM157.87,18.32h-18.94l2.79-12.63h18.94l-2.79,12.63Z"/>
      <path class="st1" d="M53.76,0h-6.28l-14.78,24h5.68L53.76,0h6.28l4.16,24h-5.68L53.76,0Z"/>
      <path class="st1" d="M29.93,0l-2.03,9.16H8.97L10.99,0h-5.68L0,24h5.68l3.28-14.84,4.42,5.69h13.26l-2.03,9.16h5.68L35.61,0h-5.68Z"/>
    </g>
  </g>
</svg>